<svg id="Layer_1" data-name="Layer 1" xmlns="http://www.w3.org/2000/svg" viewBox="0 0 100 100"><defs><style>.cls-1{fill:none;stroke:#6dac06;stroke-miterlimit:10;stroke-width:3.58px;}.cls-2{fill:#6dac06;}</style></defs><title>Air Duct Cleaning Service Areas
</title><path class="cls-1" d="M44.84,61.22h-13A3.9,3.9,0,0,1,28,57.33v-13a3.91,3.91,0,0,1,3.9-3.9H68.22a3.91,3.91,0,0,1,3.9,3.9v13a3.9,3.9,0,0,1-3.9,3.89h-13"/><path class="cls-1" d="M55.23,65.12H44.84V56a5.2,5.2,0,1,1,10.39,0Z"/><line class="cls-1" x1="47.44" y1="65.12" x2="47.44" y2="82"/><line class="cls-1" x1="52.64" y1="65.12" x2="52.64" y2="82"/><line class="cls-1" x1="24.07" y1="26.16" x2="18.87" y2="26.16"/><line class="cls-1" x1="24.07" y1="31.35" x2="18.87" y2="31.35"/><line class="cls-1" x1="24.07" y1="36.55" x2="18.87" y2="36.55"/><line class="cls-1" x1="24.07" y1="41.74" x2="18.87" y2="41.74"/><line class="cls-1" x1="24.07" y1="46.94" x2="18.87" y2="46.94"/><line class="cls-1" x1="24.07" y1="52.13" x2="18.87" y2="52.13"/><line class="cls-1" x1="24.07" y1="57.33" x2="18.87" y2="57.33"/><line class="cls-1" x1="24.07" y1="62.52" x2="18.87" y2="62.52"/><line class="cls-1" x1="25.37" y1="67.72" x2="18.87" y2="67.72"/><line class="cls-1" x1="40.95" y1="67.72" x2="27.96" y2="67.72"/><line class="cls-1" x1="21.47" y1="72.91" x2="18.87" y2="72.91"/><line class="cls-1" x1="35.75" y1="72.91" x2="24.07" y2="72.91"/><line class="cls-1" x1="43.55" y1="72.91" x2="38.35" y2="72.91"/><line class="cls-1" x1="76.01" y1="26.16" x2="81.21" y2="26.16"/><line class="cls-1" x1="76.01" y1="31.35" x2="81.21" y2="31.35"/><line class="cls-1" x1="76.01" y1="36.55" x2="81.21" y2="36.55"/><line class="cls-1" x1="76.01" y1="41.74" x2="81.21" y2="41.74"/><line class="cls-1" x1="76.01" y1="46.94" x2="81.21" y2="46.94"/><line class="cls-1" x1="76.01" y1="52.13" x2="81.21" y2="52.13"/><line class="cls-1" x1="76.01" y1="57.33" x2="81.21" y2="57.33"/><line class="cls-1" x1="76.01" y1="62.52" x2="81.21" y2="62.52"/><line class="cls-1" x1="66.92" y1="67.72" x2="81.21" y2="67.72"/><line class="cls-1" x1="59.13" y1="67.72" x2="64.32" y2="67.72"/><line class="cls-1" x1="73.41" y1="72.91" x2="81.21" y2="72.91"/><line class="cls-1" x1="56.53" y1="72.91" x2="70.82" y2="72.91"/><path class="cls-2" d="M50,4A46,46,0,1,1,4,50,46.06,46.06,0,0,1,50,4m0-4a50,50,0,1,0,50,50A50,50,0,0,0,50,0Z"/></svg>