<svg id="Layer_1" data-name="Layer 1" xmlns="http://www.w3.org/2000/svg" viewBox="0 0 100 100"><defs><style>.cls-1{fill:none;stroke:#6dac06;stroke-miterlimit:10;stroke-width:3.54px;}.cls-2{fill:#6dac06;}</style></defs><title>Satisfaction Guaranteed
</title><line class="cls-1" x1="25.08" y1="62.96" x2="25.08" y2="79.65"/><line class="cls-1" x1="37.91" y1="79.65" x2="37.91" y2="62.96"/><path class="cls-1" d="M19.94,79.65v-18a5.14,5.14,0,0,1,5.14-5.14H37.91a5.14,5.14,0,0,1,5.14,5.14v18"/><line class="cls-1" x1="37.91" y1="75.8" x2="25.08" y2="75.8"/><circle class="cls-1" cx="31.49" cy="46.27" r="5.14"/><line class="cls-1" x1="55.89" y1="79.65" x2="55.89" y2="68.1"/><path class="cls-1" d="M46.9,61.68h9A5.14,5.14,0,0,1,61,66.81V79.65"/><circle class="cls-1" cx="49.47" cy="51.41" r="5.14"/><line class="cls-1" x1="73.86" y1="79.65" x2="73.86" y2="71.95"/><path class="cls-1" d="M64.88,65.53h9A5.14,5.14,0,0,1,79,70.67v9"/><circle class="cls-1" cx="67.44" cy="55.26" r="5.14"/><path class="cls-1" d="M61.23,47.08A14.12,14.12,0,1,1,73.71,22.42"/><path class="cls-1" d="M57.82,31.66l7.06,7.06L77.19,26.41a14.25,14.25,0,0,1-5.6,19.45"/><path class="cls-2" d="M50,4A46,46,0,1,1,4,50,46.06,46.06,0,0,1,50,4m0-4a50,50,0,1,0,50,50A50,50,0,0,0,50,0Z"/></svg>