<svg id="Layer_1" data-name="Layer 1" xmlns="http://www.w3.org/2000/svg" viewBox="0 0 100 100"><defs><style>.cls-1{fill:none;stroke:#6dac06;stroke-miterlimit:10;stroke-width:3.89px;}.cls-2{fill:#6dac06;}</style></defs><title>Improve Air Quality
</title><path class="cls-1" d="M61.2,33.94c11.3,0,11.3,5.65,22.6,5.65"/><path class="cls-1" d="M38.6,39.59c8.28,0,10.5-3,15.54-4.66"/><path class="cls-1" d="M16,33.94c8.28,0,10.49,3,15.54,4.67"/><path class="cls-1" d="M61.2,46.66c11.3,0,11.3,5.65,22.6,5.65"/><path class="cls-1" d="M38.6,52.31c8.28,0,10.5-3,15.54-4.66"/><path class="cls-1" d="M16,46.66c8.28,0,10.49,3,15.54,4.66"/><path class="cls-1" d="M61.2,59.37C72.5,59.37,72.5,65,83.8,65"/><path class="cls-1" d="M38.6,65c8.28,0,10.5-3,15.54-4.66"/><path class="cls-1" d="M16,59.37c8.28,0,10.49,3,15.54,4.66"/><polygon class="cls-1" points="45.66 18.41 31.54 26.88 31.54 80.56 45.66 72.08 45.66 18.41"/><polygon class="cls-1" points="68.26 18.41 54.14 26.88 54.14 80.56 68.26 72.08 68.26 18.41"/><line class="cls-1" x1="16" y1="25.47" x2="18.83" y2="25.47"/><line class="cls-1" x1="16" y1="66.43" x2="18.83" y2="66.43"/><line class="cls-1" x1="23.06" y1="69.26" x2="25.89" y2="69.26"/><line class="cls-1" x1="18.83" y1="74.91" x2="21.65" y2="74.91"/><line class="cls-1" x1="18.83" y1="41.01" x2="21.65" y2="41.01"/><line class="cls-1" x1="21.65" y1="21.23" x2="24.48" y2="21.23"/><line class="cls-1" x1="24.48" y1="28.29" x2="27.3" y2="28.29"/><line class="cls-1" x1="23.06" y1="55.13" x2="25.89" y2="55.13"/><line class="cls-1" x1="16" y1="53.72" x2="18.83" y2="53.72"/><path class="cls-2" d="M50,4A46,46,0,1,1,4,50,46.06,46.06,0,0,1,50,4m0-4a50,50,0,1,0,50,50A50,50,0,0,0,50,0Z"/></svg>